<?xml version="1.0" standalone="no"?>
<!DOCTYPE svg PUBLIC "-//W3C//DTD SVG 20010904//EN"
 "http://www.w3.org/TR/2001/REC-SVG-20010904/DTD/svg10.dtd">
<svg version="1.0" xmlns="http://www.w3.org/2000/svg"
 width="148.000000pt" height="148.000000pt" viewBox="0 0 148.000000 148.000000"
 preserveAspectRatio="xMidYMid meet">

<g transform="translate(0.000000,148.000000) scale(0.100000,-0.100000)"
fill="#000000" stroke="none">
<path d="M625 1470 c-286 -45 -528 -266 -602 -550 -23 -88 -23 -272 0 -360 54
-207 200 -386 392 -481 116 -56 189 -73 325 -73 136 0 209 17 325 73 150 74
262 186 336 336 56 116 73 189 73 325 0 136 -17 209 -73 325 -94 190 -275 339
-475 390 -77 19 -225 26 -301 15z m260 -122 c301 -66 514 -373 475 -682 -18
-146 -75 -261 -180 -366 -140 -140 -324 -204 -514 -180 -147 18 -261 75 -366
181 -106 107 -162 219 -180 365 -24 191 40 373 180 514 159 159 362 217 585
168z"/>
<path d="M610 1015 l-44 -45 114 -115 115 -115 -115 -115 -115 -115 45 -45 45
-45 160 160 160 160 -160 160 -160 160 -45 -45z"/>
</g>
</svg>
